<svg xmlns="http://www.w3.org/2000/svg" version="1.1" xmlns:xlink="http://www.w3.org/1999/xlink" xmlns:svgjs="http://svgjs.dev/svgjs" width="1000" height="1000" viewBox="0 0 1000 1000"><rect width="1000" height="1000" fill="#000000"></rect><g transform="matrix(0.7,0,0,0.7,149.5757575757575,441.61317288029795)"><svg viewBox="0 0 396 66" data-background-color="#ffffff" preserveAspectRatio="xMidYMid meet" height="166" width="1000" xmlns="http://www.w3.org/2000/svg" xmlns:xlink="http://www.w3.org/1999/xlink"><g id="tight-bounds" transform="matrix(1,0,0,1,0.24000000000003752,0.16291385456395346)"><svg viewBox="0 0 395.5199999999999 65.6741722908721" height="65.6741722908721" width="395.5199999999999"><g><svg viewBox="0 0 505.3585090012166 83.91232248382923" height="65.6741722908721" width="395.5199999999999"><g transform="matrix(1,0,0,1,109.83850900121662,11.597144424320827)"><svg viewBox="0 0 395.52 60.718033635187574" height="60.718033635187574" width="395.52"><g><svg viewBox="0 0 395.52 60.718033635187574" height="60.718033635187574" width="395.52"><g><svg viewBox="0 0 395.52 60.718033635187574" height="60.718033635187574" width="395.52"><g transform="matrix(1,0,0,1,0,0)"><svg width="395.52" viewBox="0.65 -35.1 232.23 35.6" height="60.718033635187574" data-palette-color="#4790fc"><g class="undefined-text-0" data-fill-palette-color="primary" id="text-0"><path d="M11.3-31.15L0.65-31.15 0.65-34.6 25.65-34.6 25.65-31.15 15.1-31.15 15.1 0 11.3 0 11.3-31.15ZM51.6 0L30.55 0 30.55-34.6 51.6-34.6 51.6-31.2 34.4-31.2 34.4-19.25 48.6-19.25 48.6-15.9 34.4-15.9 34.4-3.4 51.6-3.4 51.6 0ZM65.25-31.15L54.6-31.15 54.6-34.6 79.6-34.6 79.6-31.15 69.05-31.15 69.05 0 65.25 0 65.25-31.15ZM98.14-13.25L88.34-13.25 88.34 0 84.49 0 84.49-34.6 97.29-34.6Q102.79-34.6 105.57-32.05 108.34-29.5 108.34-24.1L108.34-24.1Q108.34-16.1 101.99-14.05L101.99-14.05 108.64 0 104.39 0 98.14-13.25ZM88.34-16.65L97.34-16.65Q104.39-16.65 104.39-23.93 104.39-31.2 97.29-31.2L97.29-31.2 88.34-31.2 88.34-16.65ZM116.04 0L112.24 0 121.74-34.6 130.14-34.6 139.64 0 135.84 0 133.34-8.9 118.54-8.9 116.04 0ZM127.24-31.3L124.64-31.3 119.39-12.35 132.49-12.35 127.24-31.3ZM157.74-11.65L157.74-11.65 148.94-11.65 148.94 0 145.09 0 145.09-34.6 157.74-34.6Q163.39-34.6 166.09-31.85 168.79-29.1 168.79-23.45L168.79-23.45Q168.79-11.65 157.74-11.65ZM148.94-31.2L148.94-15.05 157.69-15.05Q164.84-15.05 164.84-23.45L164.84-23.45Q164.84-27.45 163.14-29.33 161.44-31.2 157.69-31.2L157.69-31.2 148.94-31.2ZM177.29-17.15Q177.29-9.55 179.29-6.23 181.29-2.9 187.01-2.9 192.74-2.9 194.71-6.15 196.69-9.4 196.69-17.05 196.69-24.7 194.64-28.2 192.59-31.7 186.96-31.7 181.34-31.7 179.31-28.23 177.29-24.75 177.29-17.15ZM200.69-17.05Q200.69-7.8 197.74-3.65 194.79 0.5 187.01 0.5 179.24 0.5 176.29-3.75 173.34-8 173.34-17.13 173.34-26.25 176.34-30.68 179.34-35.1 186.99-35.1 194.64-35.1 197.66-30.7 200.69-26.3 200.69-17.05ZM220.08 0L220.08 0 207.73 0 207.73-34.6 220.08-34.6Q228.53-34.6 231.28-27.9L231.28-27.9Q232.88-24.05 232.88-17.8L232.88-17.8Q232.88-4.75 226.38-1.35L226.38-1.35Q223.78 0 220.08 0ZM228.93-17.8L228.93-17.8Q228.93-27.75 224.48-30.2L224.48-30.2Q222.68-31.2 220.08-31.2L220.08-31.2 211.58-31.2 211.58-3.4 220.08-3.4Q228.93-3.4 228.93-17.8Z" fill="#ffffff" data-fill-palette-color="primary"></path></g></svg></g></svg></g></svg></g></svg></g><g><svg viewBox="0 0 95.50443849275608 83.91232248382923" height="83.91232248382923" width="95.50443849275608"><g><svg xmlns="http://www.w3.org/2000/svg" xmlns:xlink="http://www.w3.org/1999/xlink" version="1.1" x="0" y="0" viewBox="25.23431457505076 26.199999999999996 51.785623646131526 45.49999999999999" enable-background="new 0 0 100 100" xml:space="preserve" height="83.91232248382923" width="95.50443849275608" class="icon-icon-0" data-fill-palette-color="accent" id="icon-0"><g fill="#4790fc" data-fill-palette-color="accent"><g fill="#4790fc" data-fill-palette-color="accent"><path d="M76.4 61.4c-0.1-0.5-0.3-1.7-1.1-2.6-0.1-0.1-0.2-0.2-0.3-0.3L61.4 47.3l-3.2-16.2c0 0 0 0 0 0 0 0 0 0 0 0l-0.7-2.8c0 0 0 0 0 0-0.3-1.5-4.3-2.1-6.4-2.1s-6.1 0.6-6.4 2.1c0 0 0 0 0 0L44 31.1c0 0 0 0 0 0 0 0 0 0 0 0l-3.2 16.2L27.1 58.5c-0.1 0.1-0.3 0.2-0.3 0.3-0.9 1.2-1.5 3.1-1.5 3.1 0 0.2 0 0.3 0 0.5-0.1 0.5-0.1 1.1 0.1 1.7 0.3 1.2 0.9 2.6 1.9 3.9 1.6 2.2 3.6 3.6 5.2 3.6 0.3 0 0.7-0.1 0.9-0.2 0.2 0 0.4 0 0.7 0 0.5 0 1.1 0 1.8-0.2 0 0 0.1 0 0.1 0 0 0 0 0 0 0l0 0c0.1 0 0.1 0 0.2-0.1l10.1-4.3c0.9 1.1 3.8 1.2 4.8 1.2s3.9-0.1 4.8-1.2L66 71.1c0.1 0 0.1 0.1 0.2 0.1l0 0c0 0 0 0 0 0 0 0 0.1 0 0.1 0 1.1 0.3 2.2 0.3 2.6 0.3 0.3 0.1 0.6 0.2 1 0.2 1.5 0 3.6-1.4 5.2-3.6C77 65.5 77.6 62.7 76.4 61.4zM67.8 68.3c-0.1 0.7-0.2 1.2-0.1 1.7-0.3 0-0.7-0.1-1-0.2 0 0 0 0 0 0l-0.1 0c-0.4-0.5-0.3-3.7 1.8-6.5 1.6-2.1 3.8-3.4 5.2-3.6 0.3 0 0.4 0 0.5 0l0.1 0.1c0.2 0.3 0.4 0.7 0.5 1-1.5 0.1-3.5 1.5-5 3.6C68.8 65.6 68.1 67 67.8 68.3zM51.8 63.6V53c0.6-0.7 3.2-3.3 8.7-4.5l12.1 9.9c-1.7 0.5-3.7 1.9-5.3 4-1.6 2.2-2.3 4.9-2.2 6.7L51.8 63.6zM37.1 69.1c0.1-1.8-0.6-4.5-2.2-6.7-1.6-2.1-3.7-3.5-5.3-4l12.1-9.9c6.4 1.4 8.3 3.8 8.7 4.4v10.7L37.1 69.1zM35.5 69.8c-0.3 0.1-0.7 0.1-1 0.1 0.3-1.5-0.4-3.6-1.9-5.8-1.6-2.2-3.6-3.6-5.1-3.6 0.2-0.3 0.3-0.6 0.5-0.8l0.1-0.1c0.1 0 0.2 0 0.5 0 1.3 0.2 3.6 1.5 5.2 3.6C35.8 66.1 35.9 69.4 35.5 69.8L35.5 69.8zM56.6 31.1c-0.6 0.4-2.7 1.1-5.6 1.1s-5-0.7-5.6-1.1l0.3-1.3c1.4 0.7 3.8 1 5.2 1s3.8-0.3 5.2-1L56.6 31.1zM51.1 27.7c2.1 0 3.7 0.4 4.5 0.8-0.8 0.3-2.4 0.8-4.5 0.8s-3.7-0.4-4.5-0.8C47.4 28.2 49 27.7 51.1 27.7zM45.2 32.6c1.6 0.7 4.2 1 5.9 1s4.3-0.3 5.9-1l2.8 14.5c-4.8 1.1-7.5 3.3-8.7 4.4-1-1.1-3.4-3.1-8.8-4.4L45.2 32.6zM28.5 67.2c-0.8-1.1-1.4-2.3-1.6-3.4-0.2-0.8-0.1-1.4 0.2-1.6 0.1-0.1 0.2-0.1 0.4-0.1 0.9 0 2.5 1 4 3 1.8 2.4 2.1 4.6 1.5 5-0.1 0.1-0.2 0.1-0.4 0.1C31.6 70.2 29.9 69.1 28.5 67.2zM51.1 66.5c-1.4 0-2.5-0.2-3.1-0.4l3.1-1.3 3.1 1.3C53.5 66.4 52.5 66.5 51.1 66.5zM73.8 67.3c-1.7 2.3-3.8 3.3-4.3 2.9-0.3-0.2-0.3-0.8-0.2-1.6 0.2-1 0.8-2.2 1.6-3.4 1.4-1.9 3.1-3 4-3 0.2 0 0.3 0 0.4 0.1C75.9 62.8 75.6 64.9 73.8 67.3z" fill="#ffffff" data-fill-palette-color="accent"></path><path d="M45.6 44.6l0.9-5.2c0.1-0.4-0.2-0.8-0.6-0.9-0.4-0.1-0.8 0.2-0.9 0.6L44 45c0 0.2 0 0.4 0.1 0.6s0.3 0.3 0.5 0.3c0 0 2.5 0.2 3.5 1.7 0.1 0.2 0.4 0.3 0.6 0.3 0.2 0 0.3 0 0.4-0.1 0.3-0.2 0.4-0.7 0.2-1C48.4 45.3 46.6 44.8 45.6 44.6z" fill="#ffffff" data-fill-palette-color="accent"></path><path d="M46.2 37.5c0.2 0 0.4-0.1 0.5-0.2 0.1-0.1 0.2-0.3 0.2-0.5 0-0.2-0.1-0.4-0.2-0.5-0.3-0.3-0.8-0.3-1.1 0-0.1 0.1-0.2 0.3-0.2 0.5 0 0.2 0.1 0.4 0.2 0.5C45.8 37.5 46 37.5 46.2 37.5z" fill="#ffffff" data-fill-palette-color="accent"></path></g></g></svg></g></svg></g></svg></g><defs></defs></svg><rect width="395.5199999999999" height="65.6741722908721" fill="none" stroke="none" visibility="hidden"></rect></g></svg></g></svg>